<svg xmlns="http://www.w3.org/2000/svg" viewBox="0 0 1200 1040" role="img" aria-label="Skills">
<defs>
<linearGradient id="bg" x1="0" y1="0" x2="1" y2="1"><stop offset="0" stop-color="#071512"/><stop offset="1" stop-color="#0c211b"/></linearGradient>
<filter id="soft"><feGaussianBlur stdDeviation="18"/></filter>
</defs>
<rect width="1200" height="1040" rx="20" fill="url(#bg)"/>
<circle cx="1080" cy="80" r="100" fill="#4fb7a2" opacity=".07" filter="url(#soft)"/>
<g font-family="Inter,Segoe UI,Arial,sans-serif">
<text x="60" y="58" fill="#e9f1ed" font-size="30" font-weight="700">Skills</text>
<text x="60" y="88" fill="#8ea39c" font-size="15">Core technologies actively used or hands-on experience.</text>

<rect x="50" y="120" width="540" height="265" rx="16" fill="#0a1d18" stroke="#21483e"/>
<text x="76" y="153" fill="#79c8b6" font-size="16" font-weight="700">Backend</text>
<g fill="#0d2a22" stroke="#386f61">
<rect x="76" y="172" width="92" height="46" rx="23"/><rect x="180" y="172" width="120" height="46" rx="23"/><rect x="312" y="172" width="126" height="46" rx="23"/>
<rect x="76" y="226" width="196" height="46" rx="23"/><rect x="284" y="226" width="136" height="46" rx="23"/><rect x="432" y="226" width="96" height="46" rx="23"/>
<rect x="76" y="280" width="210" height="46" rx="23"/>
</g>
<g fill="#dce9e4" font-size="16" text-anchor="middle">
<text x="122" y="202">PHP</text><text x="240" y="202">Laravel</text><text x="375" y="202">Laravel Nova</text>
<text x="174" y="256">Horizon and Queues</text><text x="352" y="256">CodeIgniter</text><text x="480" y="256">REST APIs</text>
<text x="181" y="310">NetSuite SuiteScript</text>
</g>

<rect x="610" y="120" width="540" height="265" rx="16" fill="#0a1d18" stroke="#21483e"/>
<text x="636" y="153" fill="#79c8b6" font-size="16" font-weight="700">Frontend</text>
<g fill="#0d2a22" stroke="#386f61">
<rect x="636" y="172" width="125" height="46" rx="23"/><rect x="773" y="172" width="105" height="46" rx="23"/><rect x="890" y="172" width="110" height="46" rx="23"/>
<rect x="636" y="226" width="92" height="46" rx="23"/><rect x="740" y="226" width="100" height="46" rx="23"/><rect x="852" y="226" width="86" height="46" rx="23"/><rect x="950" y="226" width="112" height="46" rx="23"/>
<rect x="636" y="280" width="92" height="46" rx="23"/>
</g>
<g fill="#dce9e4" font-size="16" text-anchor="middle">
<text x="698.5" y="202">Vue.js</text><text x="825.5" y="202">Inertia.js</text><text x="945" y="202">JavaScript</text>
<text x="682" y="256">HTML</text><text x="790" y="256">jQuery</text><text x="895" y="256">Axios</text><text x="1006" y="256">Tailwind CSS</text>
<text x="682" y="310">CSS</text>
</g>

<rect x="50" y="415" width="540" height="265" rx="16" fill="#0a1d18" stroke="#21483e"/>
<text x="76" y="448" fill="#79c8b6" font-size="16" font-weight="700">Data</text>
<g fill="#0d2a22" stroke="#386f61">
<rect x="76" y="467" width="92" height="46" rx="23"/><rect x="180" y="467" width="92" height="46" rx="23"/><rect x="284" y="467" width="200" height="46" rx="23"/>
<rect x="76" y="521" width="168" height="46" rx="23"/><rect x="256" y="521" width="144" height="46" rx="23"/>
<rect x="76" y="575" width="142" height="46" rx="23"/><rect x="230" y="575" width="136" height="46" rx="23"/><rect x="378" y="575" width="142" height="46" rx="23"/>
</g>
<g fill="#dce9e4" font-size="16" text-anchor="middle">
<text x="122" y="497">MySQL</text><text x="226" y="497">Redis</text><text x="384" y="497">Multi-Tenant Databases</text>
<text x="160" y="551">Bulk CSV / Excel</text><text x="328" y="551">Power BI Feeds</text>
<text x="147" y="605">Query Optimization</text><text x="298" y="605">N+1 Elimination</text><text x="449" y="605">Import / Export</text>
</g>

<rect x="610" y="415" width="540" height="265" rx="16" fill="#0a1d18" stroke="#21483e"/>
<text x="636" y="448" fill="#79c8b6" font-size="16" font-weight="700">Integrations</text>
<g fill="#0d2a22" stroke="#386f61">
<rect x="636" y="467" width="112" height="46" rx="23"/><rect x="760" y="467" width="190" height="46" rx="23"/><rect x="962" y="467" width="92" height="46" rx="23"/>
<rect x="636" y="521" width="92" height="46" rx="23"/><rect x="740" y="521" width="188" height="46" rx="23"/><rect x="940" y="521" width="190" height="46" rx="23"/>
<rect x="636" y="575" width="140" height="46" rx="23"/><rect x="788" y="575" width="92" height="46" rx="23"/>
</g>
<g fill="#dce9e4" font-size="16" text-anchor="middle">
<text x="692" y="497">Salesforce</text><text x="855" y="497">PayPal Subscriptions</text><text x="1008" y="497">PayMaya</text>
<text x="682" y="551">AWS S3</text><text x="834" y="551">Google OAuth / SSO</text><text x="1035" y="551">Firebase Cloud Messaging</text>
<text x="706" y="605">SFTP Ingestion</text><text x="834" y="605">MinIO</text>
</g>

<rect x="50" y="710" width="540" height="265" rx="16" fill="#0a1d18" stroke="#21483e"/>
<text x="76" y="743" fill="#79c8b6" font-size="16" font-weight="700">DevOps and Quality</text>
<g fill="#0d2a22" stroke="#386f61">
<rect x="76" y="762" width="94" height="46" rx="23"/><rect x="182" y="762" width="100" height="46" rx="23"/><rect x="294" y="762" width="88" height="46" rx="23"/><rect x="394" y="762" width="100" height="46" rx="23"/>
<rect x="76" y="816" width="92" height="46" rx="23"/><rect x="180" y="816" width="310" height="46" rx="23"/>
<rect x="76" y="870" width="112" height="46" rx="23"/><rect x="200" y="870" width="100" height="46" rx="23"/><rect x="312" y="870" width="168" height="46" rx="23"/><rect x="492" y="870" width="92" height="46" rx="23"/>
</g>
<g fill="#dce9e4" font-size="16" text-anchor="middle">
<text x="123" y="792">Docker</text><text x="232" y="792">Jenkins</text><text x="338" y="792">CI/CD</text><text x="444" y="792">GitHub</text>
<text x="122" y="846">GitLab</text><text x="335" y="846">Git (GitHub, GitLab, Bitbucket)</text>
<text x="132" y="900">PHPUnit</text><text x="250" y="900">PHPStan</text><text x="396" y="900">PHP_CodeSniffer</text><text x="538" y="900">Laravel Pint</text>
</g>

<rect x="610" y="710" width="540" height="265" rx="16" fill="#0a1d18" stroke="#21483e"/>
<text x="636" y="743" fill="#79c8b6" font-size="16" font-weight="700">Ways of Working</text>
<g fill="#0d2a22" stroke="#386f61">
<rect x="636" y="762" width="154" height="46" rx="23"/><rect x="802" y="762" width="74" height="46" rx="23"/><rect x="888" y="762" width="118" height="46" rx="23"/>
<rect x="636" y="816" width="190" height="46" rx="23"/><rect x="838" y="816" width="130" height="46" rx="23"/>
<rect x="636" y="870" width="188" height="46" rx="23"/><rect x="836" y="870" width="136" height="46" rx="23"/>
</g>
<g fill="#dce9e4" font-size="16" text-anchor="middle">
<text x="713" y="792">Agile and Scrum</text><text x="839" y="792">Jira</text><text x="947" y="792">Code Review</text>
<text x="731" y="846">Technical Design Specs</text><text x="903" y="846">QA Test Plans</text>
<text x="730" y="900">AI-Assisted Development</text><text x="904" y="900">Claude Code</text>
</g>
<path d="M50 985H1150" stroke="#21483e"/>
</g>
</svg>